<?xml version="1.0" encoding="UTF-8" standalone="no"?>
<!-- Created with Inkscape (http://www.inkscape.org/) -->

<svg
   xmlns:dc="http://purl.org/dc/elements/1.1/"
   xmlns:cc="http://creativecommons.org/ns#"
   xmlns:rdf="http://www.w3.org/1999/02/22-rdf-syntax-ns#"
   xmlns:svg="http://www.w3.org/2000/svg"
   xmlns="http://www.w3.org/2000/svg"
   xmlns:sodipodi="http://sodipodi.sourceforge.net/DTD/sodipodi-0.dtd"
   xmlns:inkscape="http://www.inkscape.org/namespaces/inkscape"
   width="210mm"
   height="297mm"
   viewBox="0 0 744.09448819 1052.3622047"
   id="svg4425"
   version="1.1"
   inkscape:version="0.91 r13725"
   sodipodi:docname="novalogo-noosfero.svg">
  <defs
     id="defs4427" />
  <sodipodi:namedview
     id="base"
     pagecolor="#ffffff"
     bordercolor="#666666"
     borderopacity="1.0"
     inkscape:pageopacity="0.0"
     inkscape:pageshadow="2"
     inkscape:zoom="0.49497475"
     inkscape:cx="363.74838"
     inkscape:cy="637.23271"
     inkscape:document-units="px"
     inkscape:current-layer="layer1"
     showgrid="false"
     inkscape:window-width="1920"
     inkscape:window-height="1009"
     inkscape:window-x="0"
     inkscape:window-y="34"
     inkscape:window-maximized="1" />
  <metadata
     id="metadata4430">
    <rdf:RDF>
      <cc:Work
         rdf:about="">
        <dc:format>image/svg+xml</dc:format>
        <dc:type
           rdf:resource="http://purl.org/dc/dcmitype/StillImage" />
        <dc:title></dc:title>
      </cc:Work>
    </rdf:RDF>
  </metadata>
  <g
     inkscape:label="Camada 1"
     inkscape:groupmode="layer"
     id="layer1">
    <g
       id="g4209"
       transform="matrix(1.25,0,0,-1.25,-107.07171,603.35202)">
      <g
         transform="translate(256.7548,398.2084)"
         id="g50">
        <path
           inkscape:connector-curvature="0"
           id="path52"
           style="fill:#365860;fill-opacity:1;fill-rule:nonzero;stroke:none"
           d="M 0,0 C 0,0.417 -0.167,0.834 -0.501,1.252 -0.876,1.628 -1.336,1.815 -1.878,1.815 -2.379,1.815 -2.776,1.669 -3.067,1.377 -3.402,1.042 -3.61,0.584 -3.693,0 l 0,-23.915 c 0,-0.542 0.166,-0.981 0.5,-1.314 0.334,-0.376 0.772,-0.564 1.315,-0.564 0.501,0 0.939,0.188 1.315,0.564 0.376,0.376 0.563,0.814 0.563,1.314 L 0,0 Z m 3.443,-29.173 c -1.461,-1.462 -3.235,-2.191 -5.321,-2.191 -2.087,0 -3.84,0.709 -5.258,2.128 -1.42,1.503 -2.129,3.276 -2.129,5.321 l 0,23.915 c 0,2.003 0.73,3.735 2.191,5.196 1.46,1.46 3.193,2.191 5.196,2.191 2.045,0 3.797,-0.731 5.259,-2.191 C 4.841,3.818 5.572,2.086 5.572,0 l 0,-23.915 c 0,-2.087 -0.71,-3.84 -2.129,-5.258" />
      </g>
      <g
         transform="translate(275.5979,398.2084)"
         id="g54">
        <path
           inkscape:connector-curvature="0"
           id="path56"
           style="fill:#365860;fill-opacity:1;fill-rule:nonzero;stroke:none"
           d="M 0,0 C 0,0.417 -0.167,0.834 -0.501,1.252 -0.876,1.628 -1.336,1.815 -1.878,1.815 -2.379,1.815 -2.776,1.669 -3.067,1.377 -3.402,1.042 -3.61,0.584 -3.693,0 l 0,-23.915 c 0,-0.542 0.166,-0.981 0.5,-1.314 0.334,-0.376 0.772,-0.564 1.315,-0.564 0.501,0 0.939,0.188 1.315,0.564 0.376,0.376 0.563,0.814 0.563,1.314 L 0,0 Z m 3.444,-29.173 c -1.462,-1.462 -3.236,-2.191 -5.322,-2.191 -2.087,0 -3.84,0.709 -5.258,2.128 -1.42,1.503 -2.129,3.276 -2.129,5.321 l 0,23.915 c 0,2.003 0.73,3.735 2.191,5.196 1.46,1.46 3.193,2.191 5.196,2.191 2.045,0 3.797,-0.731 5.259,-2.191 C 4.841,3.818 5.572,2.086 5.572,0 l 0,-23.915 c 0,-2.087 -0.71,-3.84 -2.128,-5.258" />
      </g>
      <g
         transform="translate(297.7591,369.0353)"
         id="g58">
        <path
           inkscape:connector-curvature="0"
           id="path60"
           style="fill:#365860;fill-opacity:1;fill-rule:nonzero;stroke:none"
           d="m 0,0 c -1.419,-1.419 -3.193,-2.128 -5.321,-2.128 -2.046,0 -3.778,0.709 -5.196,2.128 -1.461,1.418 -2.191,3.171 -2.191,5.258 l 0,4.947 5.572,0 0,-5.009 c 0,-0.543 0.166,-0.981 0.5,-1.315 0.334,-0.334 0.772,-0.5 1.315,-0.5 0.501,0 0.939,0.187 1.315,0.563 0.375,0.376 0.563,0.814 0.563,1.314 l 0,5.384 c 0,0.501 -0.188,0.94 -0.563,1.315 l -6.511,6.574 c -1.461,1.418 -2.191,3.17 -2.191,5.258 l 0,5.384 c 0,2.003 0.73,3.735 2.191,5.196 1.418,1.418 3.15,2.129 5.196,2.129 2.086,0 3.839,-0.711 5.259,-2.129 1.46,-1.377 2.19,-3.11 2.19,-5.196 l 0,-5.008 -5.571,0 0,5.008 c 0,0.376 -0.167,0.792 -0.501,1.252 -0.417,0.334 -0.876,0.501 -1.377,0.501 -0.46,0 -0.856,-0.125 -1.19,-0.376 -0.334,-0.334 -0.543,-0.793 -0.625,-1.377 l 0,-5.384 c 0,-0.543 0.166,-0.981 0.5,-1.314 l 6.574,-6.574 c 1.46,-1.461 2.19,-3.214 2.19,-5.259 l 0,-5.384 C 2.128,3.171 1.418,1.418 0,0" />
      </g>
      <g
         transform="translate(310.5924,399.7105)"
         id="g62">
        <path
           inkscape:connector-curvature="0"
           id="path64"
           style="fill:#365860;fill-opacity:1;fill-rule:nonzero;stroke:none"
           d="m 0,0 0,-32.491 -5.571,0 0,32.491 -3.256,0 0,5.572 3.256,0 0,3.568 c 0,2.003 0.729,3.735 2.19,5.196 1.461,1.46 3.193,2.191 5.196,2.191 l 1.878,0 0,-5.572 -1.878,0 c -0.5,0 -0.898,-0.146 -1.189,-0.438 C 0.292,10.183 0.083,9.724 0,9.14 l 0,-3.568 3.693,0 L 3.693,0 0,0 Z" />
      </g>
      <g
         transform="translate(326.4299,398.2084)"
         id="g66">
        <path
           inkscape:connector-curvature="0"
           id="path68"
           style="fill:#365860;fill-opacity:1;fill-rule:nonzero;stroke:none"
           d="M 0,0 C 0,0.417 -0.167,0.834 -0.501,1.252 -0.876,1.628 -1.336,1.815 -1.878,1.815 -2.379,1.815 -2.776,1.669 -3.067,1.377 -3.402,1.042 -3.61,0.584 -3.693,0 l 0,-9.203 3.693,0 L 0,0 Z m 3.444,-29.236 c -1.42,-1.377 -3.194,-2.066 -5.322,-2.066 -2.045,0 -3.778,0.71 -5.196,2.129 -1.461,1.418 -2.191,3.171 -2.191,5.258 l 0,23.915 c 0,2.003 0.73,3.735 2.191,5.196 1.46,1.46 3.193,2.191 5.196,2.191 2.045,0 3.797,-0.731 5.259,-2.191 C 4.841,3.818 5.572,2.086 5.572,0 l 0,-14.774 -9.265,0 0,-9.141 c 0,-0.542 0.166,-0.981 0.5,-1.314 0.334,-0.376 0.772,-0.564 1.315,-0.564 0.459,0 0.897,0.167 1.315,0.501 0.376,0.376 0.563,0.814 0.563,1.315 l 0,5.008 5.572,0 0,-5.008 c 0,-2.087 -0.71,-3.84 -2.128,-5.259" />
      </g>
      <g
         transform="translate(345.0846,393.1999)"
         id="g70">
        <path
           inkscape:connector-curvature="0"
           id="path72"
           style="fill:#365860;fill-opacity:1;fill-rule:nonzero;stroke:none"
           d="M 0,0 0,4.633 C 0,5.091 -0.167,5.53 -0.501,5.947 -0.876,6.323 -1.336,6.511 -1.878,6.511 l -1.815,0 0,-32.491 -5.572,0 0,38.063 1.377,0 c 1.586,0 2.817,-0.774 3.694,-2.317 l 2.316,2.317 c 2.045,0 3.797,-0.731 5.259,-2.192 1.46,-1.377 2.191,-3.13 2.191,-5.258 L 5.572,0 0,0 Z" />
      </g>
      <g
         transform="translate(237.9117,367.2198)"
         id="g74">
        <path
           inkscape:connector-curvature="0"
           id="path76"
           style="fill:#365860;fill-opacity:1;fill-rule:nonzero;stroke:none"
           d="m 0,0 0,39.827 c 0,0.596 -0.167,1.167 -0.501,1.71 -0.375,0.489 -0.835,0.733 -1.377,0.733 l -1.815,0 0,-42.27 -5.572,0 0,49.519 1.377,0 c 1.586,0 2.817,-1.006 3.694,-3.014 l 2.316,3.014 c 2.045,0 3.797,-0.951 5.259,-2.851 1.46,-1.792 2.191,-4.072 2.191,-6.841 L 5.572,0 0,0 Z" />
      </g>
      <g
         transform="translate(361.9248,398.2084)"
         id="g78">
        <path
           inkscape:connector-curvature="0"
           id="path80"
           style="fill:#365860;fill-opacity:1;fill-rule:nonzero;stroke:none"
           d="M 0,0 C 0,0.417 -0.167,0.834 -0.501,1.252 -0.876,1.628 -1.336,1.815 -1.878,1.815 -2.379,1.815 -2.776,1.669 -3.067,1.377 -3.402,1.042 -3.61,0.584 -3.693,0 l 0,-23.915 c 0,-0.542 0.166,-0.981 0.5,-1.314 0.334,-0.376 0.772,-0.564 1.315,-0.564 0.501,0 0.939,0.188 1.315,0.564 0.376,0.376 0.563,0.814 0.563,1.314 L 0,0 Z m 3.443,-29.173 c -1.461,-1.462 -3.235,-2.191 -5.321,-2.191 -2.087,0 -3.84,0.709 -5.258,2.128 -1.42,1.503 -2.129,3.276 -2.129,5.321 l 0,23.915 c 0,2.003 0.73,3.735 2.191,5.196 1.46,1.46 3.193,2.191 5.196,2.191 2.045,0 3.797,-0.731 5.259,-2.191 C 4.841,3.818 5.572,2.086 5.572,0 l 0,-23.915 c 0,-2.087 -0.71,-3.84 -2.129,-5.258" />
      </g>
      <g
         transform="translate(188.0926,421.0503)"
         id="g82">
        <path
           inkscape:connector-curvature="0"
           id="path84"
           style="fill:#2880a8;fill-opacity:1;fill-rule:nonzero;stroke:none"
           d="M 0,0 C 0.022,-0.038 0.043,-0.077 0.064,-0.115 0.043,-0.077 0.022,-0.038 0,0" />
      </g>
      <g
         transform="translate(170.4602,422.1221)"
         id="g86">
        <path
           inkscape:connector-curvature="0"
           id="path88"
           style="fill:#56b3e6;fill-opacity:1;fill-rule:nonzero;stroke:none"
           d="M 0,0 C 0.058,-0.086 0.114,-0.172 0.17,-0.259 0.114,-0.172 0.058,-0.086 0,0" />
      </g>
      <g
         transform="translate(192.994,420.9352)"
         id="g90">
        <path
           inkscape:connector-curvature="0"
           id="path92"
           style="fill:#56b3e6;fill-opacity:1;fill-rule:nonzero;stroke:none"
           d="M 0,0 C 1.558,-2.788 2.149,-5.685 2.357,-8.872 2.341,-5.806 1.553,-2.746 0,0" />
      </g>
      <g
         transform="translate(176.7533,385.0945)"
         id="g94">
        <path
           inkscape:connector-curvature="0"
           id="path96"
           style="fill:#92879d;fill-opacity:1;fill-rule:nonzero;stroke:none"
           d="M 0,0 C -0.388,0.48 -0.804,0.944 -1.247,1.391 -8.343,8.544 -19.893,8.59 -27.046,1.496 l -0.001,-0.002 c -0.174,-0.173 -0.333,-0.355 -0.498,-0.533 0.145,0.156 0.282,0.317 0.434,0.469 -4.96,-4.97 -6.132,-10.332 -5.472,-18.827 0,0 0.333,-0.776 1.422,-0.778 -0.011,0.027 -0.018,0.056 -0.029,0.084 0.351,-0.002 0.781,0.074 1.305,0.285 0,0 -0.487,-0.314 -1.018,-0.983 0.06,-0.137 0.126,-0.272 0.189,-0.407 -0.05,0.108 -0.104,0.215 -0.153,0.324 -0.473,-0.603 -0.98,-1.491 -1.202,-2.706 -0.538,-2.948 0.8,-4.456 0.551,-6.449 -0.123,-0.986 -1.518,-2.093 -0.64,-2.09 1.344,0.003 4.102,0.314 6.907,0.351 4.103,0.054 7.697,-0.135 10.981,0.068 -0.023,0.001 -0.047,0.002 -0.07,0.002 4.773,0.275 8.896,1.387 12.988,5.291 0.044,0.042 0.084,0.086 0.127,0.129 C 5.357,-17.617 5.777,-7.142 0,0" />
      </g>
      <g
         transform="translate(168.654,359.1672)"
         id="g98">
        <path
           inkscape:connector-curvature="0"
           id="path100"
           style="fill:#d4d4d4;fill-opacity:1;fill-rule:nonzero;stroke:none"
           d="M 0,0 0.001,0.001 0,0 Z" />
      </g>
      <g
         transform="translate(155.635,366.7102)"
         id="g102">
        <path
           inkscape:connector-curvature="0"
           id="path104"
           style="fill:#ccc3d6;fill-opacity:1;fill-rule:nonzero;stroke:none"
           d="m 0,0 c -3.827,3.82 -3.833,10.02 -0.012,13.847 3.82,3.827 10.02,3.833 13.847,0.012 3.827,-3.82 3.833,-10.02 0.012,-13.847 C 10.027,-3.815 3.827,-3.82 0,0" />
      </g>
      <g
         transform="translate(175.4667,423.6364)"
         id="g106">
        <path
           inkscape:connector-curvature="0"
           id="path108"
           style="fill:#56b3e6;fill-opacity:1;fill-rule:nonzero;stroke:none"
           d="m 0,0 c -0.659,0.66 -1.356,1.258 -2.083,1.796 -0.034,0.024 -0.067,0.048 -0.1,0.072 -0.188,0.136 -0.378,0.268 -0.569,0.397 -0.086,0.058 -0.173,0.114 -0.259,0.17 -0.129,0.084 -0.26,0.165 -0.391,0.245 -0.14,0.085 -0.281,0.17 -0.422,0.251 -0.038,0.022 -0.077,0.042 -0.115,0.064 -2.788,1.558 -5.685,2.149 -8.873,2.358 -3.321,0.217 -6.956,0.023 -11.116,0.078 -3.529,0.046 -7.539,0.245 -7.539,0.245 1.317,-3.5 2.408,-8.094 2.634,-9.661 0.004,-0.031 0.01,-0.067 0.014,-0.095 0.073,-0.51 0.01,-1.037 -0.22,-1.498 -0.248,-0.496 -0.588,-0.721 -0.928,-0.839 -0.629,-0.218 -1.256,-0.06 -1.292,-0.522 -0.584,-7.501 0.264,-12.559 3.884,-17.061 0.481,-0.598 1.008,-1.186 1.59,-1.768 4.667,-4.676 11.241,-6.29 17.225,-4.839 3.127,0.765 6.092,2.367 8.537,4.808 C 7.108,-18.681 7.118,-7.131 0,0" />
      </g>
      <g
         transform="translate(169.1635,404.1525)"
         id="g110">
        <path
           inkscape:connector-curvature="0"
           id="path112"
           style="fill:#8ed9ff;fill-opacity:1;fill-rule:nonzero;stroke:none"
           d="m 0,0 c -3.82,-3.827 -10.02,-3.833 -13.847,-0.012 -3.827,3.82 -3.833,10.02 -0.012,13.847 3.82,3.827 10.02,3.833 13.847,0.012 C 3.815,10.027 3.82,3.827 0,0" />
      </g>
      <g
         transform="translate(187.3613,398.1968)"
         id="g114">
        <path
           inkscape:connector-curvature="0"
           id="path116"
           style="fill:#96be2a;fill-opacity:1;fill-rule:nonzero;stroke:none"
           d="M 0,0 C -5.884,5.874 -7.007,14.858 -3.145,21.749 -7.337,14.737 -6.412,5.52 -0.367,-0.514 c 7.13,-7.118 18.681,-7.108 25.799,0.023 0.643,0.644 1.226,1.325 1.753,2.035 C 26.759,1.031 26.298,0.525 25.797,0.023 18.68,-7.107 7.13,-7.117 0,0" />
      </g>
      <g
         transform="translate(218.6322,417.0492)"
         id="g118">
        <path
           inkscape:connector-curvature="0"
           id="path120"
           style="fill:#96be2a;fill-opacity:1;fill-rule:nonzero;stroke:none"
           d="m 0,0 c 0,0 -0.895,-0.087 -1.669,-0.051 -0.69,0.031 -1.284,0.161 -1.06,0.537 0.165,0.277 0.321,0.568 0.468,0.868 2.173,4.42 2.559,11.105 2.156,11.073 -1.34,-0.107 -4.421,-0.021 -7.227,-0.058 -5.562,-0.073 -10.368,0.033 -14.64,-0.871 -3.394,-0.606 -6.646,-2.178 -9.321,-4.714 -0.044,-0.041 -0.09,-0.08 -0.134,-0.122 -0.019,-0.017 -0.032,-0.032 -0.042,-0.046 -0.063,-0.062 -0.129,-0.12 -0.192,-0.183 -1.085,-1.086 -2.001,-2.276 -2.755,-3.537 -3.862,-6.89 -2.739,-15.875 3.145,-21.748 7.13,-7.118 18.68,-7.108 25.797,0.022 0.501,0.502 0.962,1.009 1.388,1.521 3.79,4.565 4.68,9.67 4.086,17.309" />
      </g>
      <g
         transform="translate(193.3187,418.0266)"
         id="g122">
        <path
           inkscape:connector-curvature="0"
           id="path124"
           style="fill:#c6dc4a;fill-opacity:1;fill-rule:nonzero;stroke:none"
           d="m 0,0 c -3.82,-3.827 -3.815,-10.027 0.012,-13.847 3.827,-3.821 10.027,-3.815 13.847,0.012 3.821,3.827 3.815,10.027 -0.012,13.847 C 10.02,3.833 3.82,3.827 0,0" />
      </g>
      <g
         transform="translate(197.4015,387.4292)"
         id="g126">
        <path
           inkscape:connector-curvature="0"
           id="path128"
           style="fill:#d96409;fill-opacity:1;fill-rule:nonzero;stroke:none"
           d="M 0,0 C 1.986,-0.259 3.87,-0.693 5.638,-1.403 3.832,-0.631 1.927,-0.162 0,0" />
      </g>
      <g
         transform="translate(218.185,372.7964)"
         id="g130">
        <path
           inkscape:connector-curvature="0"
           id="path132"
           style="fill:#d96409;fill-opacity:1;fill-rule:nonzero;stroke:none"
           d="M 0,0 C 0.017,0.392 0.022,0.785 0.014,1.177 0.022,0.785 0.017,0.392 0,0 m -2.543,-8.517 c -0.237,1.753 -0.302,2.997 -0.302,2.997 0.453,-0.461 0.84,-0.914 1.175,-1.346 2.68,-3.445 1.889,-5.463 1.963,1.692 0.027,2.64 -0.031,5.156 -0.34,7.527 l 0,0 c -0.258,1.986 -0.693,3.87 -1.403,5.638 -0.886,2.074 -2.17,4.019 -3.861,5.713 -1.969,1.972 -4.278,3.397 -6.738,4.28 -6.403,2.242 -13.807,0.807 -18.929,-4.306 -7.13,-7.117 -7.277,-18.806 -0.023,-25.797 3.835,-3.696 7.711,-4.914 12.135,-5.293 3.512,-0.301 7.369,-0.073 11.827,-0.132 3.53,-0.046 7.494,-0.2 7.494,-0.2 -1.534,2.456 -2.638,6.569 -2.998,9.227" />
      </g>
      <g
         transform="translate(206.8929,380.5534)"
         id="g134">
        <path
           inkscape:connector-curvature="0"
           id="path136"
           style="fill:#f3c300;fill-opacity:1;fill-rule:nonzero;stroke:none"
           d="m 0,0 c -3.827,3.82 -10.027,3.815 -13.847,-0.012 -3.821,-3.827 -3.815,-10.027 0.012,-13.847 3.827,-3.821 10.027,-3.815 13.847,0.012 C 3.833,-10.02 3.827,-3.82 0,0" />
      </g>
      <g
         transform="translate(159.278,383.0651)"
         id="g138">
        <path
           inkscape:connector-curvature="0"
           id="path140"
           style="fill:#ffffff;fill-opacity:1;fill-rule:nonzero;stroke:none"
           d="m 0,0 c -1.231,-0.436 -2.389,-1.125 -3.398,-2.068 2.778,-6.113 7.701,-11.048 13.805,-13.842 0.947,1.008 1.638,2.164 2.077,3.394 C 6.895,-10.094 2.408,-5.597 0,0" />
      </g>
      <g
         transform="translate(171.5435,414.2899)"
         id="g142">
        <path
           inkscape:connector-curvature="0"
           id="path144"
           style="fill:#ffffff;fill-opacity:1;fill-rule:nonzero;stroke:none"
           d="m 0,0 c -0.4,1.241 -1.057,2.414 -1.965,3.445 -6.079,-2.813 -10.976,-7.755 -13.732,-13.866 1.039,-0.897 2.217,-1.542 3.461,-1.931 C -9.854,-6.859 -5.465,-2.434 0,0" />
      </g>
      <g
         transform="translate(203.1305,401.9609)"
         id="g146">
        <path
           inkscape:connector-curvature="0"
           id="path148"
           style="fill:#ffffff;fill-opacity:1;fill-rule:nonzero;stroke:none"
           d="m 0,0 c 1.246,0.383 2.427,1.023 3.468,1.913 -2.756,6.109 -7.652,11.049 -13.73,13.861 -0.902,-1.035 -1.552,-2.211 -1.946,-3.453 C -6.759,9.888 -2.382,5.476 0,0" />
      </g>
      <g
         transform="translate(206.5865,381.0371)"
         id="g150">
        <path
           inkscape:connector-curvature="0"
           id="path152"
           style="fill:#ffffff;fill-opacity:1;fill-rule:nonzero;stroke:none"
           d="m 0,0 c -1.016,0.933 -2.178,1.612 -3.412,2.038 -2.397,-5.58 -6.862,-10.067 -12.425,-12.497 0.434,-1.231 1.12,-2.391 2.06,-3.402 C -7.681,-11.057 -2.768,-6.116 0,0" />
      </g>
    </g>
    <g
       id="g4263"
       transform="matrix(1.25,0,0,-1.25,-190.29645,588.9969)">
      <g
         transform="translate(579.0754,341.1648)"
         id="g154">
        <path
           inkscape:connector-curvature="0"
           id="path156"
           style="fill:#365860;fill-opacity:1;fill-rule:nonzero;stroke:none"
           d="M 0,0 C 0,0.322 -0.129,0.644 -0.387,0.966 -0.676,1.257 -1.031,1.401 -1.45,1.401 -1.836,1.401 -2.143,1.288 -2.368,1.063 -2.626,0.805 -2.787,0.451 -2.851,0 l 0,-18.462 c 0,-0.419 0.128,-0.758 0.386,-1.015 0.258,-0.29 0.596,-0.435 1.015,-0.435 0.387,0 0.725,0.145 1.015,0.435 0.29,0.29 0.435,0.628 0.435,1.015 L 0,0 Z m 2.658,-22.522 c -1.128,-1.128 -2.497,-1.691 -4.108,-1.691 -1.611,0 -2.964,0.547 -4.059,1.643 -1.096,1.16 -1.644,2.529 -1.644,4.108 l 0,18.462 c 0,1.546 0.564,2.883 1.692,4.011 1.127,1.127 2.465,1.692 4.011,1.692 1.579,0 2.932,-0.565 4.06,-1.692 C 3.737,2.948 4.302,1.611 4.302,0 l 0,-18.462 c 0,-1.612 -0.549,-2.965 -1.644,-4.06" />
      </g>
      <g
         transform="translate(593.6225,341.1648)"
         id="g158">
        <path
           inkscape:connector-curvature="0"
           id="path160"
           style="fill:#365860;fill-opacity:1;fill-rule:nonzero;stroke:none"
           d="M 0,0 C 0,0.322 -0.129,0.644 -0.387,0.966 -0.677,1.257 -1.031,1.401 -1.45,1.401 -1.836,1.401 -2.143,1.288 -2.368,1.063 -2.626,0.805 -2.787,0.451 -2.851,0 l 0,-18.462 c 0,-0.419 0.128,-0.758 0.386,-1.015 0.258,-0.29 0.596,-0.435 1.015,-0.435 0.387,0 0.725,0.145 1.015,0.435 0.29,0.29 0.435,0.628 0.435,1.015 L 0,0 Z m 2.658,-22.522 c -1.128,-1.128 -2.497,-1.691 -4.108,-1.691 -1.611,0 -2.964,0.547 -4.059,1.643 -1.096,1.16 -1.644,2.529 -1.644,4.108 l 0,18.462 c 0,1.546 0.564,2.883 1.692,4.011 1.127,1.127 2.465,1.692 4.011,1.692 1.579,0 2.932,-0.565 4.06,-1.692 C 3.737,2.948 4.302,1.611 4.302,0 l 0,-18.462 c 0,-1.612 -0.549,-2.965 -1.644,-4.06" />
      </g>
      <g
         transform="translate(610.7311,318.6428)"
         id="g162">
        <path
           inkscape:connector-curvature="0"
           id="path164"
           style="fill:#365860;fill-opacity:1;fill-rule:nonzero;stroke:none"
           d="m 0,0 c -1.096,-1.096 -2.465,-1.643 -4.108,-1.643 -1.579,0 -2.916,0.547 -4.011,1.643 -1.128,1.095 -1.692,2.448 -1.692,4.06 l 0,3.818 4.302,0 0,-3.867 c 0,-0.419 0.128,-0.757 0.386,-1.015 0.258,-0.258 0.596,-0.386 1.015,-0.386 0.387,0 0.725,0.145 1.015,0.435 0.29,0.29 0.435,0.628 0.435,1.015 l 0,4.156 c 0,0.387 -0.145,0.725 -0.435,1.015 l -5.026,5.075 c -1.128,1.095 -1.692,2.448 -1.692,4.06 l 0,4.156 c 0,1.546 0.564,2.883 1.692,4.011 1.095,1.095 2.432,1.644 4.011,1.644 1.611,0 2.964,-0.549 4.06,-1.644 1.127,-1.063 1.691,-2.4 1.691,-4.011 l 0,-3.867 -4.301,0 0,3.867 c 0,0.29 -0.129,0.611 -0.387,0.966 -0.322,0.258 -0.676,0.387 -1.063,0.387 -0.355,0 -0.661,-0.096 -0.918,-0.29 -0.259,-0.258 -0.419,-0.612 -0.483,-1.063 l 0,-4.156 c 0,-0.42 0.128,-0.758 0.386,-1.015 l 5.075,-5.075 C 1.079,11.148 1.643,9.795 1.643,8.216 l 0,-4.156 C 1.643,2.448 1.095,1.095 0,0" />
      </g>
      <g
         transform="translate(620.6387,342.3245)"
         id="g166">
        <path
           inkscape:connector-curvature="0"
           id="path168"
           style="fill:#365860;fill-opacity:1;fill-rule:nonzero;stroke:none"
           d="m 0,0 0,-25.083 -4.301,0 0,25.083 -2.514,0 0,4.302 2.514,0 0,2.754 c 0,1.547 0.563,2.883 1.691,4.011 1.128,1.128 2.465,1.692 4.012,1.692 l 1.449,0 0,-4.301 -1.449,0 C 1.015,8.458 0.708,8.345 0.483,8.12 0.225,7.861 0.064,7.507 0,7.056 l 0,-2.754 2.851,0 L 2.851,0 0,0 Z" />
      </g>
      <g
         transform="translate(632.8654,341.1648)"
         id="g170">
        <path
           inkscape:connector-curvature="0"
           id="path172"
           style="fill:#365860;fill-opacity:1;fill-rule:nonzero;stroke:none"
           d="M 0,0 C 0,0.322 -0.129,0.644 -0.387,0.966 -0.676,1.257 -1.031,1.401 -1.45,1.401 -1.836,1.401 -2.143,1.288 -2.368,1.063 -2.626,0.805 -2.787,0.451 -2.851,0 l 0,-7.105 2.851,0 L 0,0 Z m 2.658,-22.57 c -1.096,-1.063 -2.465,-1.595 -4.108,-1.595 -1.579,0 -2.916,0.547 -4.011,1.643 -1.128,1.095 -1.692,2.448 -1.692,4.06 l 0,18.462 c 0,1.546 0.564,2.883 1.692,4.011 1.127,1.127 2.465,1.692 4.011,1.692 1.579,0 2.932,-0.565 4.06,-1.692 C 3.737,2.948 4.302,1.611 4.302,0 l 0,-11.406 -7.153,0 0,-7.056 c 0,-0.419 0.128,-0.758 0.386,-1.015 0.258,-0.29 0.596,-0.435 1.015,-0.435 0.354,0 0.693,0.128 1.015,0.386 0.29,0.291 0.435,0.629 0.435,1.015 l 0,3.867 4.302,0 0,-3.867 c 0,-1.611 -0.549,-2.964 -1.644,-4.059" />
      </g>
      <g
         transform="translate(647.267,337.2982)"
         id="g174">
        <path
           inkscape:connector-curvature="0"
           id="path176"
           style="fill:#365860;fill-opacity:1;fill-rule:nonzero;stroke:none"
           d="m 0,0 0,3.576 c 0,0.355 -0.129,0.693 -0.387,1.015 -0.29,0.291 -0.644,0.435 -1.063,0.435 l -1.401,0 0,-25.083 -4.302,0 0,29.385 1.064,0 c 1.224,0 2.174,-0.597 2.851,-1.788 L -1.45,9.328 C 0.129,9.328 1.482,8.764 2.61,7.636 3.737,6.573 4.302,5.22 4.302,3.576 L 4.302,0 0,0 Z" />
      </g>
      <g
         transform="translate(564.5283,317.2413)"
         id="g178">
        <path
           inkscape:connector-curvature="0"
           id="path180"
           style="fill:#365860;fill-opacity:1;fill-rule:nonzero;stroke:none"
           d="m 0,0 0,30.747 c 0,0.46 -0.129,0.901 -0.387,1.32 -0.289,0.378 -0.644,0.566 -1.063,0.566 l -1.401,0 0,-32.633 -4.302,0 0,38.229 1.064,0 c 1.224,0 2.175,-0.776 2.851,-2.326 l 1.788,2.326 c 1.579,0 2.932,-0.734 4.06,-2.201 1.127,-1.383 1.692,-3.144 1.692,-5.281 L 4.302,0 0,0 Z" />
      </g>
      <g
         transform="translate(660.2678,341.1648)"
         id="g182">
        <path
           inkscape:connector-curvature="0"
           id="path184"
           style="fill:#365860;fill-opacity:1;fill-rule:nonzero;stroke:none"
           d="M 0,0 C 0,0.322 -0.129,0.644 -0.387,0.966 -0.676,1.257 -1.031,1.401 -1.45,1.401 -1.836,1.401 -2.143,1.288 -2.368,1.063 -2.626,0.805 -2.787,0.451 -2.851,0 l 0,-18.462 c 0,-0.419 0.128,-0.758 0.386,-1.015 0.258,-0.29 0.596,-0.435 1.015,-0.435 0.387,0 0.725,0.145 1.015,0.435 0.29,0.29 0.435,0.628 0.435,1.015 L 0,0 Z m 2.658,-22.522 c -1.128,-1.128 -2.497,-1.691 -4.108,-1.691 -1.611,0 -2.964,0.547 -4.059,1.643 -1.096,1.16 -1.644,2.529 -1.644,4.108 l 0,18.462 c 0,1.546 0.564,2.883 1.692,4.011 1.127,1.127 2.465,1.692 4.011,1.692 1.579,0 2.932,-0.565 4.06,-1.692 C 3.737,2.948 4.302,1.611 4.302,0 l 0,-18.462 c 0,-1.612 -0.549,-2.965 -1.644,-4.06" />
      </g>
      <g
         transform="translate(617.8374,435.8908)"
         id="g186">
        <path
           inkscape:connector-curvature="0"
           id="path188"
           style="fill:#2880a8;fill-opacity:1;fill-rule:nonzero;stroke:none"
           d="M 0,0 C 0.023,-0.039 0.044,-0.079 0.066,-0.118 0.044,-0.079 0.022,-0.039 0,0" />
      </g>
      <g
         transform="translate(599.7505,436.9903)"
         id="g190">
        <path
           inkscape:connector-curvature="0"
           id="path192"
           style="fill:#56b3e6;fill-opacity:1;fill-rule:nonzero;stroke:none"
           d="M 0,0 C 0.059,-0.088 0.117,-0.177 0.174,-0.265 0.117,-0.177 0.059,-0.088 0,0" />
      </g>
      <g
         transform="translate(622.8651,435.7728)"
         id="g194">
        <path
           inkscape:connector-curvature="0"
           id="path196"
           style="fill:#56b3e6;fill-opacity:1;fill-rule:nonzero;stroke:none"
           d="M 0,0 C 1.598,-2.86 2.204,-5.832 2.418,-9.101 2.401,-5.956 1.593,-2.816 0,0" />
      </g>
      <g
         transform="translate(606.2059,399.0083)"
         id="g198">
        <path
           inkscape:connector-curvature="0"
           id="path200"
           style="fill:#92879d;fill-opacity:1;fill-rule:nonzero;stroke:none"
           d="m 0,0 c -0.398,0.492 -0.825,0.969 -1.279,1.427 -7.279,7.337 -19.126,7.385 -26.464,0.107 l -0.001,-0.002 c -0.179,-0.177 -0.341,-0.364 -0.511,-0.546 0.149,0.16 0.29,0.325 0.445,0.481 -5.087,-5.098 -6.29,-10.598 -5.612,-19.312 0,0 0.341,-0.797 1.458,-0.799 -0.011,0.029 -0.019,0.058 -0.03,0.086 0.36,-0.002 0.801,0.077 1.339,0.293 0,0 -0.5,-0.322 -1.044,-1.009 0.061,-0.14 0.129,-0.278 0.194,-0.417 -0.052,0.111 -0.107,0.221 -0.157,0.333 -0.486,-0.619 -1.006,-1.53 -1.233,-2.777 -0.552,-3.023 0.821,-4.57 0.565,-6.614 -0.126,-1.011 -1.558,-2.147 -0.657,-2.145 1.379,0.004 4.207,0.323 7.085,0.361 4.209,0.056 7.895,-0.139 11.264,0.07 -0.024,0 -0.048,0.002 -0.072,0.002 4.896,0.282 9.126,1.422 13.323,5.427 0.045,0.043 0.086,0.089 0.131,0.132 C 5.495,-18.071 5.926,-7.326 0,0" />
      </g>
      <g
         transform="translate(597.8977,372.4129)"
         id="g202">
        <path
           inkscape:connector-curvature="0"
           id="path204"
           style="fill:#d4d4d4;fill-opacity:1;fill-rule:nonzero;stroke:none"
           d="M 0,0 0.001,0.001 0,0 Z" />
      </g>
      <g
         transform="translate(584.5433,380.1503)"
         id="g206">
        <path
           inkscape:connector-curvature="0"
           id="path208"
           style="fill:#ccc3d6;fill-opacity:1;fill-rule:nonzero;stroke:none"
           d="M 0,0 C -3.926,3.919 -3.931,10.278 -0.013,14.204 3.906,18.13 10.266,18.135 14.192,14.217 18.117,10.298 18.123,3.938 14.204,0.013 10.285,-3.913 3.926,-3.919 0,0" />
      </g>
      <g
         transform="translate(604.886,438.5437)"
         id="g210">
        <path
           inkscape:connector-curvature="0"
           id="path212"
           style="fill:#56b3e6;fill-opacity:1;fill-rule:nonzero;stroke:none"
           d="M 0,0 C -0.676,0.677 -1.391,1.29 -2.137,1.842 -2.171,1.867 -2.205,1.891 -2.239,1.916 -2.432,2.056 -2.627,2.191 -2.823,2.323 -2.912,2.383 -3,2.441 -3.089,2.498 -3.221,2.584 -3.355,2.667 -3.49,2.749 -3.634,2.836 -3.778,2.924 -3.923,3.006 -3.962,3.029 -4.001,3.05 -4.041,3.072 -6.9,4.671 -9.872,5.276 -13.142,5.49 c -3.406,0.224 -7.136,0.024 -11.402,0.081 -3.621,0.047 -7.734,0.252 -7.734,0.252 1.351,-3.591 2.47,-8.303 2.702,-9.911 0.004,-0.031 0.01,-0.068 0.014,-0.097 0.075,-0.524 0.01,-1.064 -0.226,-1.537 -0.254,-0.508 -0.602,-0.74 -0.951,-0.86 -0.645,-0.224 -1.289,-0.062 -1.326,-0.535 -0.599,-7.695 0.271,-12.883 3.985,-17.502 0.493,-0.613 1.034,-1.216 1.63,-1.813 4.788,-4.797 11.532,-6.452 17.669,-4.964 3.208,0.785 6.25,2.428 8.758,4.932 C 7.291,-19.163 7.301,-7.314 0,0" />
      </g>
      <g
         transform="translate(598.4203,418.5575)"
         id="g214">
        <path
           inkscape:connector-curvature="0"
           id="path216"
           style="fill:#8ed9ff;fill-opacity:1;fill-rule:nonzero;stroke:none"
           d="m 0,0 c -3.919,-3.926 -10.278,-3.931 -14.204,-0.013 -3.926,3.919 -3.931,10.279 -0.013,14.205 3.919,3.925 10.279,3.931 14.204,0.012 C 3.913,10.285 3.919,3.926 0,0" />
      </g>
      <g
         transform="translate(617.0872,412.4484)"
         id="g218">
        <path
           inkscape:connector-curvature="0"
           id="path220"
           style="fill:#96be2a;fill-opacity:1;fill-rule:nonzero;stroke:none"
           d="m 0,0 c -6.036,6.025 -7.188,15.241 -3.226,22.309 -4.3,-7.192 -3.351,-16.647 2.849,-22.836 7.315,-7.302 19.163,-7.291 26.465,0.023 0.659,0.661 1.257,1.36 1.797,2.088 C 27.448,1.058 26.976,0.538 26.462,0.023 19.161,-7.29 7.314,-7.301 0,0" />
      </g>
      <g
         transform="translate(649.1641,431.7867)"
         id="g222">
        <path
           inkscape:connector-curvature="0"
           id="path224"
           style="fill:#96be2a;fill-opacity:1;fill-rule:nonzero;stroke:none"
           d="m 0,0 c 0,0 -0.918,-0.089 -1.712,-0.053 -0.708,0.033 -1.317,0.166 -1.087,0.552 0.169,0.284 0.328,0.582 0.48,0.89 2.228,4.534 2.625,11.391 2.211,11.358 -1.375,-0.11 -4.535,-0.021 -7.413,-0.059 -5.705,-0.076 -10.636,0.034 -15.018,-0.894 C -26.02,11.172 -29.356,9.56 -32.099,6.959 -32.145,6.916 -32.191,6.877 -32.237,6.834 -32.256,6.816 -32.27,6.8 -32.28,6.786 -32.345,6.723 -32.413,6.663 -32.477,6.599 -33.589,5.484 -34.53,4.264 -35.303,2.971 c -3.962,-7.068 -2.81,-16.284 3.226,-22.309 7.314,-7.301 19.161,-7.291 26.462,0.023 0.514,0.515 0.986,1.034 1.423,1.56 C -0.303,-13.072 0.61,-7.836 0,0" />
      </g>
      <g
         transform="translate(623.1981,432.7892)"
         id="g226">
        <path
           inkscape:connector-curvature="0"
           id="path228"
           style="fill:#c6dc4a;fill-opacity:1;fill-rule:nonzero;stroke:none"
           d="m 0,0 c -3.919,-3.926 -3.913,-10.285 0.013,-14.204 3.925,-3.919 10.285,-3.913 14.204,0.012 3.918,3.926 3.913,10.286 -0.013,14.205 C 10.278,3.931 3.919,3.926 0,0" />
      </g>
      <g
         transform="translate(627.3862,401.4033)"
         id="g230">
        <path
           inkscape:connector-curvature="0"
           id="path232"
           style="fill:#d96409;fill-opacity:1;fill-rule:nonzero;stroke:none"
           d="M 0,0 C 2.037,-0.265 3.97,-0.711 5.784,-1.439 3.93,-0.647 1.977,-0.166 0,0" />
      </g>
      <g
         transform="translate(648.7053,386.3934)"
         id="g234">
        <path
           inkscape:connector-curvature="0"
           id="path236"
           style="fill:#d96409;fill-opacity:1;fill-rule:nonzero;stroke:none"
           d="M 0,0 C 0.018,0.402 0.023,0.805 0.015,1.207 0.023,0.805 0.018,0.402 0,0 m -2.608,-8.736 c -0.244,1.797 -0.31,3.073 -0.31,3.073 0.464,-0.473 0.861,-0.937 1.205,-1.379 2.749,-3.535 1.937,-5.605 2.013,1.734 0.028,2.708 -0.032,5.289 -0.348,7.721 l 0,0 c -0.265,2.037 -0.711,3.97 -1.439,5.784 -0.909,2.127 -2.226,4.122 -3.961,5.86 -2.019,2.023 -4.388,3.485 -6.912,4.39 -6.567,2.3 -14.162,0.829 -19.417,-4.417 -7.313,-7.3 -7.464,-19.29 -0.023,-26.461 3.934,-3.791 7.91,-5.041 12.448,-5.43 3.602,-0.308 7.559,-0.074 12.132,-0.135 3.62,-0.048 7.687,-0.206 7.687,-0.206 -1.574,2.52 -2.706,6.739 -3.075,9.466" />
      </g>
      <g
         transform="translate(637.1223,394.3503)"
         id="g238">
        <path
           inkscape:connector-curvature="0"
           id="path240"
           style="fill:#f3c300;fill-opacity:1;fill-rule:nonzero;stroke:none"
           d="m 0,0 c -3.926,3.919 -10.285,3.913 -14.204,-0.013 -3.919,-3.925 -3.913,-10.285 0.012,-14.204 3.926,-3.918 10.286,-3.913 14.205,0.013 C 3.931,-10.278 3.926,-3.919 0,0" />
      </g>
      <g
         transform="translate(588.2801,396.9266)"
         id="g242">
        <path
           inkscape:connector-curvature="0"
           id="path244"
           style="fill:#ffffff;fill-opacity:1;fill-rule:nonzero;stroke:none"
           d="m 0,0 c -1.262,-0.447 -2.45,-1.154 -3.486,-2.121 2.85,-6.271 7.9,-11.333 14.162,-14.199 0.97,1.034 1.679,2.22 2.13,3.481 C 7.073,-10.354 2.47,-5.741 0,0" />
      </g>
      <g
         transform="translate(600.8618,428.9562)"
         id="g246">
        <path
           inkscape:connector-curvature="0"
           id="path248"
           style="fill:#ffffff;fill-opacity:1;fill-rule:nonzero;stroke:none"
           d="m 0,0 c -0.411,1.273 -1.084,2.476 -2.016,3.534 -6.236,-2.886 -11.258,-7.955 -14.085,-14.224 1.065,-0.919 2.273,-1.582 3.549,-1.98 C -10.108,-7.036 -5.606,-2.497 0,0" />
      </g>
      <g
         transform="translate(633.2629,416.3095)"
         id="g250">
        <path
           inkscape:connector-curvature="0"
           id="path252"
           style="fill:#ffffff;fill-opacity:1;fill-rule:nonzero;stroke:none"
           d="M 0,0 C 1.278,0.392 2.489,1.049 3.558,1.963 0.73,8.229 -4.292,13.296 -10.526,16.181 -11.451,15.119 -12.118,13.913 -12.523,12.638 -6.933,10.143 -2.444,5.617 0,0" />
      </g>
      <g
         transform="translate(636.8079,394.8464)"
         id="g254">
        <path
           inkscape:connector-curvature="0"
           id="path256"
           style="fill:#ffffff;fill-opacity:1;fill-rule:nonzero;stroke:none"
           d="m 0,0 c -1.042,0.957 -2.234,1.654 -3.5,2.091 -2.459,-5.724 -7.039,-10.327 -12.745,-12.82 0.445,-1.263 1.148,-2.452 2.113,-3.489 C -7.879,-11.342 -2.839,-6.274 0,0" />
      </g>
    </g>
    <rect
       style="opacity:1;fill:#365860;fill-opacity:1;stroke:#ffffff;stroke-width:0.73766613;stroke-opacity:1"
       id="rect5081"
       width="744.73364"
       height="269.66037"
       x="1.8891382"
       y="218.37605" />
    <g
       id="g4317"
       transform="matrix(1.25,0,0,-1.25,-107.07171,501.88547)">
      <g
         transform="translate(256.7548,125.2084)"
         id="g258">
        <path
           inkscape:connector-curvature="0"
           id="path260"
           style="fill:#ffffff;fill-opacity:1;fill-rule:nonzero;stroke:none"
           d="M 0,0 C 0,0.417 -0.167,0.834 -0.501,1.252 -0.876,1.628 -1.336,1.815 -1.878,1.815 -2.379,1.815 -2.776,1.669 -3.067,1.377 -3.402,1.042 -3.61,0.584 -3.693,0 l 0,-23.915 c 0,-0.542 0.166,-0.981 0.5,-1.314 0.334,-0.376 0.772,-0.564 1.315,-0.564 0.501,0 0.939,0.188 1.315,0.564 0.376,0.376 0.563,0.814 0.563,1.314 L 0,0 Z m 3.443,-29.173 c -1.461,-1.462 -3.235,-2.191 -5.321,-2.191 -2.087,0 -3.84,0.709 -5.258,2.128 -1.42,1.503 -2.129,3.276 -2.129,5.321 l 0,23.915 c 0,2.003 0.73,3.735 2.191,5.196 1.46,1.46 3.193,2.191 5.196,2.191 2.045,0 3.797,-0.731 5.259,-2.191 C 4.841,3.818 5.572,2.086 5.572,0 l 0,-23.915 c 0,-2.087 -0.71,-3.84 -2.129,-5.258" />
      </g>
      <g
         transform="translate(275.5979,125.2084)"
         id="g262">
        <path
           inkscape:connector-curvature="0"
           id="path264"
           style="fill:#ffffff;fill-opacity:1;fill-rule:nonzero;stroke:none"
           d="M 0,0 C 0,0.417 -0.167,0.834 -0.501,1.252 -0.876,1.628 -1.336,1.815 -1.878,1.815 -2.379,1.815 -2.776,1.669 -3.067,1.377 -3.402,1.042 -3.61,0.584 -3.693,0 l 0,-23.915 c 0,-0.542 0.166,-0.981 0.5,-1.314 0.334,-0.376 0.772,-0.564 1.315,-0.564 0.501,0 0.939,0.188 1.315,0.564 0.376,0.376 0.563,0.814 0.563,1.314 L 0,0 Z m 3.444,-29.173 c -1.462,-1.462 -3.236,-2.191 -5.322,-2.191 -2.087,0 -3.84,0.709 -5.258,2.128 -1.42,1.503 -2.129,3.276 -2.129,5.321 l 0,23.915 c 0,2.003 0.73,3.735 2.191,5.196 1.46,1.46 3.193,2.191 5.196,2.191 2.045,0 3.797,-0.731 5.259,-2.191 C 4.841,3.818 5.572,2.086 5.572,0 l 0,-23.915 c 0,-2.087 -0.71,-3.84 -2.128,-5.258" />
      </g>
      <g
         transform="translate(297.7591,96.0353)"
         id="g266">
        <path
           inkscape:connector-curvature="0"
           id="path268"
           style="fill:#ffffff;fill-opacity:1;fill-rule:nonzero;stroke:none"
           d="m 0,0 c -1.419,-1.419 -3.193,-2.128 -5.321,-2.128 -2.046,0 -3.778,0.709 -5.196,2.128 -1.461,1.418 -2.191,3.171 -2.191,5.258 l 0,4.947 5.572,0 0,-5.009 c 0,-0.543 0.166,-0.981 0.5,-1.315 0.334,-0.334 0.772,-0.5 1.315,-0.5 0.501,0 0.939,0.187 1.315,0.563 0.375,0.376 0.563,0.814 0.563,1.314 l 0,5.384 c 0,0.501 -0.188,0.94 -0.563,1.315 l -6.511,6.574 c -1.461,1.418 -2.191,3.17 -2.191,5.258 l 0,5.384 c 0,2.003 0.73,3.735 2.191,5.196 1.418,1.418 3.15,2.129 5.196,2.129 2.086,0 3.839,-0.711 5.259,-2.129 1.46,-1.377 2.19,-3.11 2.19,-5.196 l 0,-5.008 -5.571,0 0,5.008 c 0,0.376 -0.167,0.792 -0.501,1.252 -0.417,0.334 -0.876,0.501 -1.377,0.501 -0.46,0 -0.856,-0.125 -1.19,-0.376 -0.334,-0.334 -0.543,-0.793 -0.625,-1.377 l 0,-5.384 c 0,-0.543 0.166,-0.981 0.5,-1.314 l 6.574,-6.574 c 1.46,-1.461 2.19,-3.214 2.19,-5.259 l 0,-5.384 C 2.128,3.171 1.418,1.418 0,0" />
      </g>
      <g
         transform="translate(310.5924,126.7105)"
         id="g270">
        <path
           inkscape:connector-curvature="0"
           id="path272"
           style="fill:#ffffff;fill-opacity:1;fill-rule:nonzero;stroke:none"
           d="m 0,0 0,-32.491 -5.571,0 0,32.491 -3.256,0 0,5.572 3.256,0 0,3.568 c 0,2.003 0.729,3.735 2.19,5.196 1.461,1.46 3.193,2.191 5.196,2.191 l 1.878,0 0,-5.572 -1.878,0 c -0.5,0 -0.898,-0.146 -1.189,-0.438 C 0.292,10.183 0.083,9.724 0,9.14 l 0,-3.568 3.693,0 L 3.693,0 0,0 Z" />
      </g>
      <g
         transform="translate(326.4299,125.2084)"
         id="g274">
        <path
           inkscape:connector-curvature="0"
           id="path276"
           style="fill:#ffffff;fill-opacity:1;fill-rule:nonzero;stroke:none"
           d="M 0,0 C 0,0.417 -0.167,0.834 -0.501,1.252 -0.876,1.628 -1.336,1.815 -1.878,1.815 -2.379,1.815 -2.776,1.669 -3.067,1.377 -3.402,1.042 -3.61,0.584 -3.693,0 l 0,-9.203 3.693,0 L 0,0 Z m 3.444,-29.236 c -1.42,-1.377 -3.194,-2.066 -5.322,-2.066 -2.045,0 -3.778,0.71 -5.196,2.129 -1.461,1.418 -2.191,3.171 -2.191,5.258 l 0,23.915 c 0,2.003 0.73,3.735 2.191,5.196 1.46,1.46 3.193,2.191 5.196,2.191 2.045,0 3.797,-0.731 5.259,-2.191 C 4.841,3.818 5.572,2.086 5.572,0 l 0,-14.774 -9.265,0 0,-9.141 c 0,-0.542 0.166,-0.981 0.5,-1.314 0.334,-0.376 0.772,-0.564 1.315,-0.564 0.459,0 0.897,0.167 1.315,0.501 0.376,0.376 0.563,0.814 0.563,1.315 l 0,5.008 5.572,0 0,-5.008 c 0,-2.087 -0.71,-3.84 -2.128,-5.259" />
      </g>
      <g
         transform="translate(345.0846,120.1999)"
         id="g278">
        <path
           inkscape:connector-curvature="0"
           id="path280"
           style="fill:#ffffff;fill-opacity:1;fill-rule:nonzero;stroke:none"
           d="M 0,0 0,4.633 C 0,5.091 -0.167,5.53 -0.501,5.947 -0.876,6.323 -1.336,6.511 -1.878,6.511 l -1.815,0 0,-32.491 -5.572,0 0,38.063 1.377,0 c 1.586,0 2.817,-0.774 3.694,-2.317 l 2.316,2.317 c 2.045,0 3.797,-0.731 5.259,-2.192 1.46,-1.377 2.191,-3.13 2.191,-5.258 L 5.572,0 0,0 Z" />
      </g>
      <g
         transform="translate(237.9117,94.2198)"
         id="g282">
        <path
           inkscape:connector-curvature="0"
           id="path284"
           style="fill:#ffffff;fill-opacity:1;fill-rule:nonzero;stroke:none"
           d="m 0,0 0,39.827 c 0,0.596 -0.167,1.167 -0.501,1.71 -0.375,0.489 -0.835,0.733 -1.377,0.733 l -1.815,0 0,-42.27 -5.572,0 0,49.519 1.377,0 c 1.586,0 2.817,-1.006 3.694,-3.014 l 2.316,3.014 c 2.045,0 3.797,-0.951 5.259,-2.851 1.46,-1.792 2.191,-4.072 2.191,-6.841 L 5.572,0 0,0 Z" />
      </g>
      <g
         transform="translate(361.9248,125.2084)"
         id="g286">
        <path
           inkscape:connector-curvature="0"
           id="path288"
           style="fill:#ffffff;fill-opacity:1;fill-rule:nonzero;stroke:none"
           d="M 0,0 C 0,0.417 -0.167,0.834 -0.501,1.252 -0.876,1.628 -1.336,1.815 -1.878,1.815 -2.379,1.815 -2.776,1.669 -3.067,1.377 -3.402,1.042 -3.61,0.584 -3.693,0 l 0,-23.915 c 0,-0.542 0.166,-0.981 0.5,-1.314 0.334,-0.376 0.772,-0.564 1.315,-0.564 0.501,0 0.939,0.188 1.315,0.564 0.376,0.376 0.563,0.814 0.563,1.314 L 0,0 Z m 3.443,-29.173 c -1.461,-1.462 -3.235,-2.191 -5.321,-2.191 -2.087,0 -3.84,0.709 -5.258,2.128 -1.42,1.503 -2.129,3.276 -2.129,5.321 l 0,23.915 c 0,2.003 0.73,3.735 2.191,5.196 1.46,1.46 3.193,2.191 5.196,2.191 2.045,0 3.797,-0.731 5.259,-2.191 C 4.841,3.818 5.572,2.086 5.572,0 l 0,-23.915 c 0,-2.087 -0.71,-3.84 -2.129,-5.258" />
      </g>
      <g
         transform="translate(188.0926,148.0503)"
         id="g290">
        <path
           inkscape:connector-curvature="0"
           id="path292"
           style="fill:#2880a8;fill-opacity:1;fill-rule:nonzero;stroke:none"
           d="M 0,0 C 0.022,-0.038 0.043,-0.077 0.064,-0.115 0.043,-0.077 0.022,-0.038 0,0" />
      </g>
      <g
         transform="translate(170.4602,149.1221)"
         id="g294">
        <path
           inkscape:connector-curvature="0"
           id="path296"
           style="fill:#56b3e6;fill-opacity:1;fill-rule:nonzero;stroke:none"
           d="M 0,0 C 0.058,-0.086 0.114,-0.172 0.17,-0.259 0.114,-0.172 0.058,-0.086 0,0" />
      </g>
      <g
         transform="translate(192.994,147.9352)"
         id="g298">
        <path
           inkscape:connector-curvature="0"
           id="path300"
           style="fill:#56b3e6;fill-opacity:1;fill-rule:nonzero;stroke:none"
           d="M 0,0 C 1.558,-2.788 2.149,-5.685 2.357,-8.872 2.341,-5.806 1.553,-2.746 0,0" />
      </g>
      <g
         transform="translate(176.7533,112.0944)"
         id="g302">
        <path
           inkscape:connector-curvature="0"
           id="path304"
           style="fill:#92879d;fill-opacity:1;fill-rule:nonzero;stroke:none"
           d="M 0,0 C -0.388,0.48 -0.804,0.944 -1.247,1.391 -8.343,8.544 -19.893,8.59 -27.046,1.496 l -0.001,-0.002 c -0.174,-0.173 -0.333,-0.355 -0.498,-0.533 0.145,0.156 0.282,0.317 0.434,0.469 -4.96,-4.97 -6.132,-10.332 -5.472,-18.827 0,0 0.333,-0.776 1.422,-0.778 -0.011,0.027 -0.018,0.056 -0.029,0.084 0.351,-0.002 0.781,0.074 1.305,0.285 0,0 -0.487,-0.314 -1.018,-0.983 0.06,-0.137 0.126,-0.272 0.189,-0.407 -0.05,0.108 -0.104,0.215 -0.153,0.324 -0.473,-0.603 -0.98,-1.491 -1.202,-2.706 -0.538,-2.948 0.8,-4.456 0.551,-6.449 -0.123,-0.986 -1.518,-2.093 -0.64,-2.09 1.344,0.003 4.102,0.314 6.907,0.351 4.103,0.054 7.697,-0.135 10.981,0.068 -0.023,0.001 -0.047,0.002 -0.07,0.002 4.773,0.275 8.896,1.387 12.988,5.291 0.044,0.042 0.084,0.086 0.127,0.129 C 5.357,-17.617 5.777,-7.142 0,0" />
      </g>
      <g
         transform="translate(168.654,86.1672)"
         id="g306">
        <path
           inkscape:connector-curvature="0"
           id="path308"
           style="fill:#d4d4d4;fill-opacity:1;fill-rule:nonzero;stroke:none"
           d="M 0,0 0.001,0.001 0,0 Z" />
      </g>
      <g
         transform="translate(155.635,93.7102)"
         id="g310">
        <path
           inkscape:connector-curvature="0"
           id="path312"
           style="fill:#ccc3d6;fill-opacity:1;fill-rule:nonzero;stroke:none"
           d="m 0,0 c -3.827,3.82 -3.833,10.02 -0.012,13.847 3.82,3.827 10.02,3.833 13.847,0.012 3.827,-3.82 3.833,-10.02 0.012,-13.847 C 10.027,-3.815 3.827,-3.82 0,0" />
      </g>
      <g
         transform="translate(175.4667,150.6364)"
         id="g314">
        <path
           inkscape:connector-curvature="0"
           id="path316"
           style="fill:#56b3e6;fill-opacity:1;fill-rule:nonzero;stroke:none"
           d="m 0,0 c -0.659,0.66 -1.356,1.258 -2.083,1.796 -0.034,0.024 -0.067,0.048 -0.1,0.072 -0.188,0.136 -0.378,0.268 -0.569,0.397 -0.086,0.058 -0.173,0.114 -0.259,0.17 -0.129,0.084 -0.26,0.165 -0.391,0.245 -0.14,0.085 -0.281,0.17 -0.422,0.251 -0.038,0.022 -0.077,0.042 -0.115,0.064 -2.788,1.558 -5.685,2.149 -8.873,2.358 -3.321,0.217 -6.956,0.023 -11.116,0.078 -3.529,0.046 -7.539,0.245 -7.539,0.245 1.317,-3.5 2.408,-8.094 2.634,-9.661 0.004,-0.031 0.01,-0.067 0.014,-0.095 0.073,-0.51 0.01,-1.037 -0.22,-1.498 -0.248,-0.496 -0.588,-0.721 -0.928,-0.839 -0.629,-0.218 -1.256,-0.06 -1.292,-0.522 -0.584,-7.501 0.264,-12.559 3.884,-17.061 0.481,-0.598 1.008,-1.186 1.59,-1.768 4.667,-4.676 11.241,-6.29 17.225,-4.839 3.127,0.765 6.092,2.367 8.537,4.808 C 7.108,-18.681 7.118,-7.131 0,0" />
      </g>
      <g
         transform="translate(169.1635,131.1525)"
         id="g318">
        <path
           inkscape:connector-curvature="0"
           id="path320"
           style="fill:#8ed9ff;fill-opacity:1;fill-rule:nonzero;stroke:none"
           d="m 0,0 c -3.82,-3.827 -10.02,-3.833 -13.847,-0.012 -3.827,3.82 -3.833,10.02 -0.012,13.847 3.82,3.827 10.02,3.833 13.847,0.012 C 3.815,10.027 3.82,3.827 0,0" />
      </g>
      <g
         transform="translate(187.3613,125.1968)"
         id="g322">
        <path
           inkscape:connector-curvature="0"
           id="path324"
           style="fill:#96be2a;fill-opacity:1;fill-rule:nonzero;stroke:none"
           d="M 0,0 C -5.884,5.874 -7.007,14.858 -3.145,21.749 -7.337,14.737 -6.412,5.52 -0.367,-0.514 c 7.13,-7.118 18.681,-7.108 25.799,0.023 0.643,0.644 1.226,1.325 1.753,2.035 C 26.759,1.031 26.298,0.525 25.797,0.023 18.68,-7.107 7.13,-7.117 0,0" />
      </g>
      <g
         transform="translate(218.6322,144.0492)"
         id="g326">
        <path
           inkscape:connector-curvature="0"
           id="path328"
           style="fill:#96be2a;fill-opacity:1;fill-rule:nonzero;stroke:none"
           d="m 0,0 c 0,0 -0.895,-0.087 -1.669,-0.051 -0.69,0.031 -1.284,0.161 -1.06,0.537 0.165,0.277 0.321,0.568 0.468,0.868 2.173,4.42 2.559,11.105 2.156,11.073 -1.34,-0.107 -4.421,-0.021 -7.227,-0.058 -5.562,-0.073 -10.368,0.033 -14.64,-0.871 -3.394,-0.606 -6.646,-2.178 -9.321,-4.714 -0.044,-0.041 -0.09,-0.08 -0.134,-0.122 -0.019,-0.017 -0.032,-0.032 -0.042,-0.046 -0.063,-0.062 -0.129,-0.12 -0.192,-0.183 -1.085,-1.086 -2.001,-2.276 -2.755,-3.537 -3.862,-6.89 -2.739,-15.875 3.145,-21.748 7.13,-7.118 18.68,-7.108 25.797,0.022 0.501,0.502 0.962,1.009 1.388,1.521 3.79,4.565 4.68,9.67 4.086,17.309" />
      </g>
      <g
         transform="translate(193.3187,145.0265)"
         id="g330">
        <path
           inkscape:connector-curvature="0"
           id="path332"
           style="fill:#c6dc4a;fill-opacity:1;fill-rule:nonzero;stroke:none"
           d="m 0,0 c -3.82,-3.827 -3.815,-10.027 0.012,-13.847 3.827,-3.821 10.027,-3.815 13.847,0.012 3.821,3.827 3.815,10.027 -0.012,13.847 C 10.02,3.833 3.82,3.827 0,0" />
      </g>
      <g
         transform="translate(197.4015,114.4292)"
         id="g334">
        <path
           inkscape:connector-curvature="0"
           id="path336"
           style="fill:#d96409;fill-opacity:1;fill-rule:nonzero;stroke:none"
           d="M 0,0 C 1.986,-0.259 3.87,-0.693 5.638,-1.403 3.832,-0.631 1.927,-0.162 0,0" />
      </g>
      <g
         transform="translate(218.185,99.7964)"
         id="g338">
        <path
           inkscape:connector-curvature="0"
           id="path340"
           style="fill:#d96409;fill-opacity:1;fill-rule:nonzero;stroke:none"
           d="M 0,0 C 0.017,0.392 0.022,0.785 0.014,1.177 0.022,0.785 0.017,0.392 0,0 m -2.543,-8.517 c -0.237,1.753 -0.302,2.997 -0.302,2.997 0.453,-0.461 0.84,-0.914 1.175,-1.346 2.68,-3.445 1.889,-5.463 1.963,1.692 0.027,2.64 -0.031,5.156 -0.34,7.527 l 0,0 c -0.258,1.986 -0.693,3.87 -1.403,5.638 -0.886,2.074 -2.17,4.019 -3.861,5.713 -1.969,1.972 -4.278,3.397 -6.738,4.28 -6.403,2.242 -13.807,0.807 -18.929,-4.306 -7.13,-7.117 -7.277,-18.806 -0.023,-25.797 3.835,-3.696 7.711,-4.914 12.135,-5.293 3.512,-0.301 7.369,-0.073 11.827,-0.132 3.53,-0.046 7.494,-0.2 7.494,-0.2 -1.534,2.456 -2.638,6.569 -2.998,9.227" />
      </g>
      <g
         transform="translate(206.8929,107.5534)"
         id="g342">
        <path
           inkscape:connector-curvature="0"
           id="path344"
           style="fill:#f3c300;fill-opacity:1;fill-rule:nonzero;stroke:none"
           d="m 0,0 c -3.827,3.82 -10.027,3.815 -13.847,-0.012 -3.821,-3.827 -3.815,-10.027 0.012,-13.847 3.827,-3.821 10.027,-3.815 13.847,0.012 C 3.833,-10.02 3.827,-3.82 0,0" />
      </g>
      <g
         transform="translate(159.278,110.0651)"
         id="g346">
        <path
           inkscape:connector-curvature="0"
           id="path348"
           style="fill:#ffffff;fill-opacity:1;fill-rule:nonzero;stroke:none"
           d="m 0,0 c -1.231,-0.436 -2.389,-1.125 -3.398,-2.068 2.778,-6.113 7.701,-11.048 13.805,-13.842 0.947,1.008 1.638,2.164 2.077,3.394 C 6.895,-10.094 2.408,-5.597 0,0" />
      </g>
      <g
         transform="translate(171.5435,141.2899)"
         id="g350">
        <path
           inkscape:connector-curvature="0"
           id="path352"
           style="fill:#ffffff;fill-opacity:1;fill-rule:nonzero;stroke:none"
           d="m 0,0 c -0.4,1.241 -1.057,2.414 -1.965,3.445 -6.079,-2.813 -10.976,-7.755 -13.732,-13.866 1.039,-0.897 2.217,-1.542 3.461,-1.931 C -9.854,-6.859 -5.465,-2.434 0,0" />
      </g>
      <g
         transform="translate(203.1305,128.9609)"
         id="g354">
        <path
           inkscape:connector-curvature="0"
           id="path356"
           style="fill:#ffffff;fill-opacity:1;fill-rule:nonzero;stroke:none"
           d="m 0,0 c 1.246,0.383 2.427,1.023 3.468,1.913 -2.756,6.109 -7.652,11.049 -13.73,13.861 -0.902,-1.035 -1.552,-2.211 -1.946,-3.453 C -6.759,9.888 -2.382,5.476 0,0" />
      </g>
      <g
         transform="translate(206.5865,108.0371)"
         id="g358">
        <path
           inkscape:connector-curvature="0"
           id="path360"
           style="fill:#ffffff;fill-opacity:1;fill-rule:nonzero;stroke:none"
           d="m 0,0 c -1.016,0.933 -2.178,1.612 -3.412,2.038 -2.397,-5.58 -6.862,-10.067 -12.425,-12.497 0.434,-1.231 1.12,-2.391 2.06,-3.402 C -7.681,-11.057 -2.768,-6.116 0,0" />
      </g>
    </g>
    <g
       id="g4371"
       transform="matrix(1.25,0,0,-1.25,-190.29645,487.53041)">
      <g
         transform="translate(579.0754,68.1648)"
         id="g362">
        <path
           inkscape:connector-curvature="0"
           id="path364"
           style="fill:#ffffff;fill-opacity:1;fill-rule:nonzero;stroke:none"
           d="M 0,0 C 0,0.322 -0.129,0.644 -0.387,0.966 -0.676,1.256 -1.031,1.401 -1.45,1.401 -1.836,1.401 -2.143,1.288 -2.368,1.063 -2.626,0.805 -2.787,0.451 -2.851,0 l 0,-18.462 c 0,-0.419 0.128,-0.758 0.386,-1.015 0.258,-0.29 0.596,-0.435 1.015,-0.435 0.387,0 0.725,0.145 1.015,0.435 0.29,0.29 0.435,0.628 0.435,1.015 L 0,0 Z m 2.658,-22.522 c -1.128,-1.128 -2.497,-1.691 -4.108,-1.691 -1.611,0 -2.964,0.547 -4.059,1.643 -1.096,1.16 -1.644,2.529 -1.644,4.108 l 0,18.462 c 0,1.546 0.564,2.883 1.692,4.011 1.127,1.127 2.465,1.692 4.011,1.692 1.579,0 2.932,-0.565 4.06,-1.692 C 3.737,2.948 4.302,1.611 4.302,0 l 0,-18.462 c 0,-1.612 -0.549,-2.965 -1.644,-4.06" />
      </g>
      <g
         transform="translate(593.6225,68.1648)"
         id="g366">
        <path
           inkscape:connector-curvature="0"
           id="path368"
           style="fill:#ffffff;fill-opacity:1;fill-rule:nonzero;stroke:none"
           d="m 0,0 c 0,0.322 -0.129,0.644 -0.387,0.966 -0.29,0.29 -0.644,0.435 -1.063,0.435 -0.386,0 -0.693,-0.113 -0.918,-0.338 C -2.626,0.805 -2.787,0.451 -2.851,0 l 0,-18.462 c 0,-0.419 0.128,-0.758 0.386,-1.015 0.258,-0.29 0.596,-0.435 1.015,-0.435 0.387,0 0.725,0.145 1.015,0.435 0.29,0.29 0.435,0.628 0.435,1.015 L 0,0 Z m 2.658,-22.522 c -1.128,-1.128 -2.497,-1.691 -4.108,-1.691 -1.611,0 -2.964,0.547 -4.059,1.643 -1.096,1.16 -1.644,2.529 -1.644,4.108 l 0,18.462 c 0,1.546 0.564,2.883 1.692,4.011 1.127,1.127 2.465,1.692 4.011,1.692 1.579,0 2.932,-0.565 4.06,-1.692 C 3.737,2.948 4.302,1.611 4.302,0 l 0,-18.462 c 0,-1.612 -0.549,-2.965 -1.644,-4.06" />
      </g>
      <g
         transform="translate(610.7311,45.6428)"
         id="g370">
        <path
           inkscape:connector-curvature="0"
           id="path372"
           style="fill:#ffffff;fill-opacity:1;fill-rule:nonzero;stroke:none"
           d="m 0,0 c -1.096,-1.096 -2.465,-1.643 -4.108,-1.643 -1.579,0 -2.916,0.547 -4.011,1.643 -1.128,1.095 -1.692,2.448 -1.692,4.06 l 0,3.818 4.302,0 0,-3.867 c 0,-0.419 0.128,-0.757 0.386,-1.015 0.258,-0.258 0.596,-0.386 1.015,-0.386 0.387,0 0.725,0.145 1.015,0.435 0.29,0.29 0.435,0.628 0.435,1.015 l 0,4.156 c 0,0.387 -0.145,0.725 -0.435,1.015 l -5.026,5.075 c -1.128,1.095 -1.692,2.448 -1.692,4.06 l 0,4.156 c 0,1.546 0.564,2.883 1.692,4.011 1.095,1.095 2.432,1.644 4.011,1.644 1.611,0 2.964,-0.549 4.06,-1.644 1.127,-1.063 1.691,-2.4 1.691,-4.011 l 0,-3.867 -4.301,0 0,3.867 c 0,0.29 -0.129,0.611 -0.387,0.966 -0.322,0.258 -0.676,0.387 -1.063,0.387 -0.355,0 -0.661,-0.097 -0.918,-0.29 -0.259,-0.258 -0.419,-0.612 -0.483,-1.063 l 0,-4.156 c 0,-0.42 0.128,-0.758 0.386,-1.015 l 5.075,-5.075 C 1.079,11.148 1.643,9.795 1.643,8.216 l 0,-4.156 C 1.643,2.448 1.095,1.095 0,0" />
      </g>
      <g
         transform="translate(620.6387,69.3244)"
         id="g374">
        <path
           inkscape:connector-curvature="0"
           id="path376"
           style="fill:#ffffff;fill-opacity:1;fill-rule:nonzero;stroke:none"
           d="m 0,0 0,-25.083 -4.301,0 0,25.083 -2.514,0 0,4.302 2.514,0 0,2.754 c 0,1.547 0.563,2.883 1.691,4.011 1.128,1.128 2.465,1.692 4.012,1.692 l 1.449,0 0,-4.301 -1.449,0 C 1.015,8.458 0.708,8.345 0.483,8.12 0.225,7.861 0.064,7.507 0,7.056 l 0,-2.754 2.851,0 L 2.851,0 0,0 Z" />
      </g>
      <g
         transform="translate(632.8654,68.1648)"
         id="g378">
        <path
           inkscape:connector-curvature="0"
           id="path380"
           style="fill:#ffffff;fill-opacity:1;fill-rule:nonzero;stroke:none"
           d="M 0,0 C 0,0.322 -0.129,0.644 -0.387,0.966 -0.676,1.256 -1.031,1.401 -1.45,1.401 -1.836,1.401 -2.143,1.288 -2.368,1.063 -2.626,0.805 -2.787,0.451 -2.851,0 l 0,-7.105 2.851,0 L 0,0 Z m 2.658,-22.57 c -1.096,-1.063 -2.465,-1.595 -4.108,-1.595 -1.579,0 -2.916,0.547 -4.011,1.643 -1.128,1.095 -1.692,2.448 -1.692,4.06 l 0,18.462 c 0,1.546 0.564,2.883 1.692,4.011 1.127,1.127 2.465,1.692 4.011,1.692 1.579,0 2.932,-0.565 4.06,-1.692 C 3.737,2.948 4.302,1.611 4.302,0 l 0,-11.406 -7.153,0 0,-7.056 c 0,-0.419 0.128,-0.758 0.386,-1.015 0.258,-0.29 0.596,-0.435 1.015,-0.435 0.354,0 0.693,0.128 1.015,0.386 0.29,0.291 0.435,0.629 0.435,1.015 l 0,3.867 4.302,0 0,-3.867 c 0,-1.611 -0.549,-2.964 -1.644,-4.059" />
      </g>
      <g
         transform="translate(647.267,64.2982)"
         id="g382">
        <path
           inkscape:connector-curvature="0"
           id="path384"
           style="fill:#ffffff;fill-opacity:1;fill-rule:nonzero;stroke:none"
           d="m 0,0 0,3.576 c 0,0.355 -0.129,0.693 -0.387,1.015 -0.29,0.291 -0.644,0.435 -1.063,0.435 l -1.401,0 0,-25.083 -4.302,0 0,29.385 1.064,0 c 1.224,0 2.174,-0.597 2.851,-1.788 L -1.45,9.328 C 0.129,9.328 1.482,8.764 2.61,7.636 3.737,6.573 4.302,5.22 4.302,3.576 L 4.302,0 0,0 Z" />
      </g>
      <g
         transform="translate(564.5283,44.2412)"
         id="g386">
        <path
           inkscape:connector-curvature="0"
           id="path388"
           style="fill:#ffffff;fill-opacity:1;fill-rule:nonzero;stroke:none"
           d="m 0,0 0,30.747 c 0,0.46 -0.129,0.901 -0.387,1.32 -0.289,0.378 -0.644,0.566 -1.063,0.566 l -1.401,0 0,-32.633 -4.302,0 0,38.229 1.064,0 c 1.224,0 2.175,-0.776 2.851,-2.326 l 1.788,2.326 c 1.579,0 2.932,-0.734 4.06,-2.201 1.127,-1.383 1.692,-3.144 1.692,-5.281 L 4.302,0 0,0 Z" />
      </g>
      <g
         transform="translate(660.2678,68.1648)"
         id="g390">
        <path
           inkscape:connector-curvature="0"
           id="path392"
           style="fill:#ffffff;fill-opacity:1;fill-rule:nonzero;stroke:none"
           d="M 0,0 C 0,0.322 -0.129,0.644 -0.387,0.966 -0.676,1.256 -1.031,1.401 -1.45,1.401 -1.836,1.401 -2.143,1.288 -2.368,1.063 -2.626,0.805 -2.787,0.451 -2.851,0 l 0,-18.462 c 0,-0.419 0.128,-0.758 0.386,-1.015 0.258,-0.29 0.596,-0.435 1.015,-0.435 0.387,0 0.725,0.145 1.015,0.435 0.29,0.29 0.435,0.628 0.435,1.015 L 0,0 Z m 2.658,-22.522 c -1.128,-1.128 -2.497,-1.691 -4.108,-1.691 -1.611,0 -2.964,0.547 -4.059,1.643 -1.096,1.16 -1.644,2.529 -1.644,4.108 l 0,18.462 c 0,1.546 0.564,2.883 1.692,4.011 1.127,1.127 2.465,1.692 4.011,1.692 1.579,0 2.932,-0.565 4.06,-1.692 C 3.737,2.948 4.302,1.611 4.302,0 l 0,-18.462 c 0,-1.612 -0.549,-2.965 -1.644,-4.06" />
      </g>
      <g
         transform="translate(617.8374,162.8908)"
         id="g394">
        <path
           inkscape:connector-curvature="0"
           id="path396"
           style="fill:#2880a8;fill-opacity:1;fill-rule:nonzero;stroke:none"
           d="M 0,0 C 0.023,-0.039 0.044,-0.079 0.066,-0.118 0.044,-0.079 0.022,-0.039 0,0" />
      </g>
      <g
         transform="translate(599.7505,163.9903)"
         id="g398">
        <path
           inkscape:connector-curvature="0"
           id="path400"
           style="fill:#56b3e6;fill-opacity:1;fill-rule:nonzero;stroke:none"
           d="M 0,0 C 0.059,-0.088 0.117,-0.177 0.174,-0.265 0.117,-0.177 0.059,-0.088 0,0" />
      </g>
      <g
         transform="translate(622.8651,162.7728)"
         id="g402">
        <path
           inkscape:connector-curvature="0"
           id="path404"
           style="fill:#56b3e6;fill-opacity:1;fill-rule:nonzero;stroke:none"
           d="M 0,0 C 1.598,-2.86 2.204,-5.832 2.418,-9.101 2.401,-5.956 1.593,-2.816 0,0" />
      </g>
      <g
         transform="translate(606.2059,126.0083)"
         id="g406">
        <path
           inkscape:connector-curvature="0"
           id="path408"
           style="fill:#92879d;fill-opacity:1;fill-rule:nonzero;stroke:none"
           d="m 0,0 c -0.398,0.492 -0.825,0.969 -1.279,1.427 -7.279,7.337 -19.126,7.385 -26.464,0.107 l -0.001,-0.002 c -0.179,-0.177 -0.341,-0.364 -0.511,-0.546 0.149,0.16 0.29,0.325 0.445,0.481 -5.087,-5.098 -6.29,-10.598 -5.612,-19.312 0,0 0.341,-0.797 1.458,-0.799 -0.011,0.029 -0.019,0.058 -0.03,0.086 0.36,-0.002 0.801,0.077 1.339,0.293 0,0 -0.5,-0.322 -1.044,-1.009 0.061,-0.14 0.129,-0.278 0.194,-0.417 -0.052,0.111 -0.107,0.221 -0.157,0.333 -0.486,-0.619 -1.006,-1.53 -1.233,-2.777 -0.552,-3.023 0.821,-4.57 0.565,-6.614 -0.126,-1.011 -1.558,-2.147 -0.657,-2.145 1.379,0.004 4.207,0.323 7.085,0.361 4.209,0.056 7.895,-0.139 11.264,0.07 -0.024,0 -0.048,0.002 -0.072,0.002 4.896,0.282 9.126,1.422 13.323,5.427 0.045,0.043 0.086,0.089 0.131,0.132 C 5.495,-18.071 5.926,-7.326 0,0" />
      </g>
      <g
         transform="translate(597.8977,99.4129)"
         id="g410">
        <path
           inkscape:connector-curvature="0"
           id="path412"
           style="fill:#d4d4d4;fill-opacity:1;fill-rule:nonzero;stroke:none"
           d="M 0,0 0.001,0.001 0,0 Z" />
      </g>
      <g
         transform="translate(584.5433,107.1503)"
         id="g414">
        <path
           inkscape:connector-curvature="0"
           id="path416"
           style="fill:#ccc3d6;fill-opacity:1;fill-rule:nonzero;stroke:none"
           d="M 0,0 C -3.926,3.919 -3.931,10.278 -0.013,14.204 3.906,18.13 10.266,18.135 14.192,14.217 18.117,10.298 18.123,3.938 14.204,0.013 10.285,-3.913 3.926,-3.919 0,0" />
      </g>
      <g
         transform="translate(604.886,165.5437)"
         id="g418">
        <path
           inkscape:connector-curvature="0"
           id="path420"
           style="fill:#56b3e6;fill-opacity:1;fill-rule:nonzero;stroke:none"
           d="M 0,0 C -0.676,0.677 -1.391,1.29 -2.137,1.842 -2.171,1.867 -2.205,1.891 -2.239,1.916 -2.432,2.056 -2.627,2.191 -2.823,2.323 -2.912,2.383 -3,2.441 -3.089,2.498 -3.221,2.584 -3.355,2.667 -3.49,2.749 -3.634,2.836 -3.778,2.924 -3.923,3.006 -3.962,3.029 -4.001,3.05 -4.041,3.072 -6.9,4.671 -9.872,5.276 -13.142,5.49 c -3.406,0.224 -7.136,0.024 -11.402,0.081 -3.621,0.047 -7.734,0.252 -7.734,0.252 1.351,-3.591 2.47,-8.303 2.702,-9.911 0.004,-0.031 0.01,-0.068 0.014,-0.097 0.075,-0.524 0.01,-1.064 -0.226,-1.537 -0.254,-0.508 -0.602,-0.74 -0.951,-0.86 -0.645,-0.224 -1.289,-0.062 -1.326,-0.535 -0.599,-7.695 0.271,-12.883 3.985,-17.502 0.493,-0.613 1.034,-1.216 1.63,-1.813 4.788,-4.797 11.532,-6.452 17.669,-4.964 3.208,0.785 6.25,2.428 8.758,4.932 C 7.291,-19.163 7.301,-7.314 0,0" />
      </g>
      <g
         transform="translate(598.4203,145.5575)"
         id="g422">
        <path
           inkscape:connector-curvature="0"
           id="path424"
           style="fill:#8ed9ff;fill-opacity:1;fill-rule:nonzero;stroke:none"
           d="m 0,0 c -3.919,-3.926 -10.278,-3.931 -14.204,-0.013 -3.926,3.919 -3.931,10.279 -0.013,14.205 3.919,3.925 10.279,3.931 14.204,0.012 C 3.913,10.285 3.919,3.926 0,0" />
      </g>
      <g
         transform="translate(617.0872,139.4484)"
         id="g426">
        <path
           inkscape:connector-curvature="0"
           id="path428"
           style="fill:#96be2a;fill-opacity:1;fill-rule:nonzero;stroke:none"
           d="m 0,0 c -6.036,6.025 -7.188,15.241 -3.226,22.309 -4.3,-7.192 -3.351,-16.647 2.849,-22.836 7.315,-7.302 19.163,-7.291 26.465,0.023 0.659,0.661 1.257,1.36 1.797,2.088 C 27.448,1.058 26.976,0.538 26.462,0.023 19.161,-7.29 7.314,-7.301 0,0" />
      </g>
      <g
         transform="translate(649.1641,158.7867)"
         id="g430">
        <path
           inkscape:connector-curvature="0"
           id="path432"
           style="fill:#96be2a;fill-opacity:1;fill-rule:nonzero;stroke:none"
           d="m 0,0 c 0,0 -0.918,-0.089 -1.712,-0.053 -0.708,0.033 -1.317,0.166 -1.087,0.552 0.169,0.284 0.328,0.582 0.48,0.89 2.228,4.534 2.625,11.391 2.211,11.358 -1.375,-0.11 -4.535,-0.021 -7.413,-0.059 -5.705,-0.076 -10.636,0.034 -15.018,-0.894 C -26.02,11.172 -29.356,9.56 -32.099,6.959 -32.145,6.916 -32.191,6.877 -32.237,6.834 -32.256,6.816 -32.27,6.8 -32.28,6.786 -32.345,6.723 -32.413,6.663 -32.477,6.599 -33.589,5.484 -34.53,4.264 -35.303,2.971 c -3.962,-7.068 -2.81,-16.284 3.226,-22.309 7.314,-7.301 19.161,-7.291 26.462,0.023 0.514,0.515 0.986,1.034 1.423,1.56 C -0.303,-13.072 0.61,-7.836 0,0" />
      </g>
      <g
         transform="translate(623.1981,159.7892)"
         id="g434">
        <path
           inkscape:connector-curvature="0"
           id="path436"
           style="fill:#c6dc4a;fill-opacity:1;fill-rule:nonzero;stroke:none"
           d="m 0,0 c -3.919,-3.926 -3.913,-10.285 0.013,-14.204 3.925,-3.919 10.285,-3.913 14.204,0.012 3.918,3.926 3.913,10.286 -0.013,14.205 C 10.278,3.931 3.919,3.926 0,0" />
      </g>
      <g
         transform="translate(627.3862,128.4033)"
         id="g438">
        <path
           inkscape:connector-curvature="0"
           id="path440"
           style="fill:#d96409;fill-opacity:1;fill-rule:nonzero;stroke:none"
           d="M 0,0 C 2.037,-0.265 3.97,-0.711 5.784,-1.439 3.93,-0.647 1.977,-0.166 0,0" />
      </g>
      <g
         transform="translate(648.7053,113.3934)"
         id="g442">
        <path
           inkscape:connector-curvature="0"
           id="path444"
           style="fill:#d96409;fill-opacity:1;fill-rule:nonzero;stroke:none"
           d="M 0,0 C 0.018,0.402 0.023,0.805 0.015,1.207 0.023,0.805 0.018,0.402 0,0 m -2.608,-8.736 c -0.244,1.797 -0.31,3.073 -0.31,3.073 0.464,-0.473 0.861,-0.937 1.205,-1.379 2.749,-3.535 1.937,-5.605 2.013,1.734 0.028,2.708 -0.032,5.289 -0.348,7.721 l 0,0 c -0.265,2.037 -0.711,3.97 -1.439,5.784 -0.909,2.127 -2.226,4.122 -3.961,5.86 -2.019,2.023 -4.388,3.485 -6.912,4.39 -6.567,2.3 -14.162,0.829 -19.417,-4.417 -7.313,-7.3 -7.464,-19.29 -0.023,-26.461 3.934,-3.791 7.91,-5.041 12.448,-5.43 3.602,-0.308 7.559,-0.074 12.132,-0.135 3.62,-0.048 7.687,-0.206 7.687,-0.206 -1.574,2.52 -2.706,6.739 -3.075,9.466" />
      </g>
      <g
         transform="translate(637.1223,121.3503)"
         id="g446">
        <path
           inkscape:connector-curvature="0"
           id="path448"
           style="fill:#f3c300;fill-opacity:1;fill-rule:nonzero;stroke:none"
           d="m 0,0 c -3.926,3.919 -10.285,3.913 -14.204,-0.013 -3.919,-3.925 -3.913,-10.285 0.012,-14.204 3.926,-3.918 10.286,-3.913 14.205,0.013 C 3.931,-10.278 3.926,-3.919 0,0" />
      </g>
      <g
         transform="translate(588.2801,123.9266)"
         id="g450">
        <path
           inkscape:connector-curvature="0"
           id="path452"
           style="fill:#ffffff;fill-opacity:1;fill-rule:nonzero;stroke:none"
           d="m 0,0 c -1.262,-0.447 -2.45,-1.154 -3.486,-2.121 2.85,-6.271 7.9,-11.333 14.162,-14.199 0.97,1.034 1.679,2.22 2.13,3.481 C 7.073,-10.354 2.47,-5.741 0,0" />
      </g>
      <g
         transform="translate(600.8618,155.9562)"
         id="g454">
        <path
           inkscape:connector-curvature="0"
           id="path456"
           style="fill:#ffffff;fill-opacity:1;fill-rule:nonzero;stroke:none"
           d="m 0,0 c -0.411,1.273 -1.084,2.476 -2.016,3.534 -6.236,-2.886 -11.258,-7.955 -14.085,-14.224 1.065,-0.92 2.273,-1.582 3.549,-1.98 C -10.108,-7.036 -5.606,-2.497 0,0" />
      </g>
      <g
         transform="translate(633.2629,143.3095)"
         id="g458">
        <path
           inkscape:connector-curvature="0"
           id="path460"
           style="fill:#ffffff;fill-opacity:1;fill-rule:nonzero;stroke:none"
           d="M 0,0 C 1.278,0.392 2.489,1.049 3.558,1.963 0.73,8.229 -4.292,13.296 -10.526,16.181 -11.451,15.119 -12.118,13.913 -12.523,12.638 -6.933,10.143 -2.444,5.617 0,0" />
      </g>
      <g
         transform="translate(636.8079,121.8464)"
         id="g462">
        <path
           inkscape:connector-curvature="0"
           id="path464"
           style="fill:#ffffff;fill-opacity:1;fill-rule:nonzero;stroke:none"
           d="m 0,0 c -1.042,0.957 -2.234,1.654 -3.5,2.091 -2.459,-5.724 -7.039,-10.327 -12.745,-12.82 0.445,-1.263 1.148,-2.452 2.113,-3.489 C -7.879,-11.342 -2.839,-6.274 0,0" />
      </g>
    </g>
  </g>
</svg>
